<mxfile host="app.diagrams.net" modified="2024-04-19T11:14:46.629Z" agent="Mozilla/5.0 (Windows NT 10.0; Win64; x64) AppleWebKit/537.36 (KHTML, like Gecko) Chrome/123.0.0.0 Safari/537.36 Edg/123.0.0.0" version="24.2.5" etag="o0tF5aqggnhwM4jvdbOT" type="github">
  <diagram name="PÃ¡gina-1" id="EY-bUbokXvz4pKlo2zr5">
    <mxGraphModel>
      <root>
        <mxCell id="0" />
        <mxCell id="1" parent="0" />
      </root>
    </mxGraphModel>
  </diagram>
</mxfile>
